<?xml version="1.0" encoding="utf-8"?>
<!-- Generator: Adobe Illustrator 17.1.0, SVG Export Plug-In . SVG Version: 6.00 Build 0)  -->
<!DOCTYPE svg PUBLIC "-//W3C//DTD SVG 1.1//EN" "http://www.w3.org/Graphics/SVG/1.1/DTD/svg11.dtd">
<svg version="1.1" id="Layer_1" xmlns="http://www.w3.org/2000/svg" xmlns:xlink="http://www.w3.org/1999/xlink" x="0px" y="0px"
	 viewBox="0 0 168 114" enable-background="new 0 0 168 114" xml:space="preserve">
<rect x="-24" y="-15" display="none" fill="#D31F3F" width="216" height="144"/>
<g>
	<rect x="-1.5" y="-29" display="none" fill="#C23B27" width="171.5" height="171.9"/>
	<g>
		<g>
			<path fill="#FFFFFF" stroke="#FFFFFF" stroke-miterlimit="10" d="M16.2,29.7C16.2,29.7,16.2,29.7,16.2,29.7
				c0.2,0.1,0.2,0.1,0.3,0.1c0,0,0,0.1,0,0.2c0,0.1-0.1,0.1-0.1,0.2c0,0-0.1,0-0.1,0c0,0-0.1,0-0.1,0c0,0-0.1,0-0.1,0
				c-1.2-0.3-2.7-0.1-4.4,0.7c-1.7,0.7-3.4,1.8-5,3.3c-2.1,2-3.4,4-4,6.1c-0.6,2-0.4,3.6,0.6,4.7c0.8,0.9,1.9,1.2,3.2,0.9
				c1.3-0.3,2.9-1.2,4.7-2.6c0.4-0.3,1.1-0.8,1.9-1.5c2.1-1.6,3.6-2.5,4.6-2.8c0.9-0.3,1.7-0.3,2.4,0c0.7,0.2,1.3,0.7,1.7,1.4
				c0.8,1.3,1,2.8,0.4,4.5c-0.5,1.7-1.6,3.3-3.2,4.8c-0.7,0.7-1.4,1.2-2.1,1.7c-0.7,0.5-1.4,0.9-2.2,1.1c-0.5,0.2-1,0.3-1.5,0.5
				c-0.5,0.1-0.8,0.2-0.9,0.2c0,0,0,0-0.1,0c0,0,0,0-0.1,0c-0.1,0-0.1,0-0.1-0.1c0,0-0.1-0.1,0-0.2c0-0.1,0-0.1,0.1-0.2
				c0,0,0.1-0.1,0.1-0.1c0,0,0.1,0,0.1,0c0,0,0.1,0,0.1,0c1-0.1,2.1-0.4,3.2-1c1.1-0.6,2.2-1.3,3.2-2.3c1.5-1.4,2.5-2.9,3-4.6
				c0.5-1.6,0.4-3-0.4-4.2c-0.4-0.6-1-1.1-1.6-1.3c-0.7-0.2-1.4-0.2-2.3,0.1c-0.8,0.3-2.3,1.1-4.3,2.7c-0.7,0.5-1.2,1-1.6,1.3
				c-2.1,1.6-3.8,2.6-5.2,2.9c-1.4,0.3-2.6,0-3.5-1c-1.1-1.3-1.4-3-0.7-5.1c0.7-2.2,2.1-4.4,4.5-6.6c1-0.9,2-1.7,3-2.3
				c1.1-0.6,2.1-1.1,3.1-1.4c0.7-0.2,1.4-0.3,2.1-0.3C15.5,29.6,16,29.6,16.2,29.7z"/>
			<path fill="#FFFFFF" stroke="#FFFFFF" stroke-miterlimit="10" d="M26.6,39.6c0,0.1,0,0.1,0,0.2c0,0.1-0.1,0.1-0.1,0.2
				c-0.1,0-0.1,0.1-0.2,0.1c0,0-0.1,0-0.1-0.1c-1-1.6-1.4-2.4-2.4-4c0,0-0.1,0.1-0.1,0.2c-0.1,0.1-0.1,0.2-0.1,0.3c0,0,0,0-0.1,0.1
				c0,0,0,0,0,0c0,0.1-0.1,0.1-0.1,0.1c0,0-0.1,0-0.1,0c0,0-0.1,0-0.1-0.1c0-0.1,0-0.2,0-0.3c0,0,0,0,0,0c0,0,0,0,0-0.1
				c0,0,0.1-0.1,0.1-0.3c0.1-0.2,0.2-0.3,0.2-0.5c-2.5-4.2-3.8-6.3-6.3-10.5c0-0.1,0-0.1,0-0.2c0-0.1,0.1-0.1,0.1-0.2
				c0.1,0,0.1-0.1,0.2,0c0.1,0,0.1,0.1,0.2,0.1c2.4,4.1,3.7,6.2,6.1,10.3c0.3-0.6,0.6-1.1,0.9-1.6c0.3-0.4,0.7-0.8,1-1
				c0.8-0.6,1.5-0.8,2.1-0.6c0.6,0.2,1.2,0.8,1.7,1.8c0.6,1.1,0.9,1.7,1.5,2.8c0,0.1,0,0.1,0,0.2c0,0.1-0.1,0.1-0.1,0.2
				c-0.1,0-0.1,0.1-0.2,0.1c0,0-0.1-0.1-0.1-0.1c-0.6-1.1-0.9-1.7-1.5-2.8c-0.5-0.9-0.9-1.4-1.4-1.6c-0.5-0.2-1.1-0.1-1.7,0.4
				c-0.4,0.3-0.7,0.6-1.1,1c-0.3,0.4-0.7,0.9-1,1.6C25.1,37,25.6,37.9,26.6,39.6z"/>
			<path fill="#FFFFFF" stroke="#FFFFFF" stroke-miterlimit="10" d="M33.6,27.3c0.9-0.5,1.8-0.7,2.7-0.4s1.5,0.8,1.9,1.7
				c0.4,0.9,0.4,1.8,0,2.7c-0.3,0.9-0.9,1.6-1.8,2.1c-0.8,0.5-1.7,0.6-2.6,0.4c-0.9-0.2-1.6-0.7-2-1.5c-0.4-0.8-0.5-1.7-0.1-2.7
				C32.1,28.6,32.7,27.9,33.6,27.3z M33.8,27.7c-0.8,0.5-1.3,1.1-1.6,2c-0.3,0.8-0.2,1.6,0.1,2.3c0.4,0.7,0.9,1.1,1.7,1.3
				c0.8,0.2,1.5,0.1,2.3-0.4c0.7-0.4,1.2-1,1.5-1.9c0.3-0.8,0.3-1.6,0-2.3c-0.3-0.8-0.9-1.2-1.6-1.5C35.4,27.1,34.6,27.3,33.8,27.7z
				"/>
			<path fill="#FFFFFF" stroke="#FFFFFF" stroke-miterlimit="10" d="M40.2,27.6c0.3,0.8,0.9,1.3,1.5,1.6c0.7,0.2,1.5,0.1,2.3-0.3
				c0.4-0.2,0.8-0.4,1.1-0.7c0.3-0.3,0.6-0.7,1-1.4c0,0,0,0,0,0c0-0.1,0.1-0.1,0.1-0.1c0,0,0.1-0.1,0.1-0.1c0.1,0,0.1,0,0.1,0
				c0,0,0.1,0,0.1,0.1c0,0,0,0.1,0,0.1c0,0,0,0.1,0,0.1c0,0,0,0,0,0.1c-0.3,0.6-0.6,1.1-0.9,1.5c-0.4,0.4-0.8,0.7-1.4,1
				c-0.9,0.5-1.8,0.5-2.6,0.3c-0.8-0.3-1.4-0.9-1.8-1.8c-0.4-0.9-0.4-1.8,0-2.7c0.4-0.9,1.1-1.6,2-2.1c0.9-0.4,1.7-0.5,2.6-0.2
				c0.8,0.3,1.4,0.9,1.7,1.6c0,0,0,0,0,0c0,0.1,0,0.2,0,0.3c0,0.1-0.1,0.1-0.2,0.2C43.5,25.9,42.4,26.5,40.2,27.6z M40,27.2
				c2.2-1.1,3.3-1.7,5.5-2.6c-0.3-0.7-0.8-1.1-1.5-1.4c-0.7-0.2-1.4-0.1-2.2,0.2c-0.7,0.4-1.3,0.9-1.6,1.6
				C39.8,25.8,39.8,26.5,40,27.2z"/>
			<path fill="#FFFFFF" stroke="#FFFFFF" stroke-miterlimit="10" d="M48.4,22c0.5-0.8,0.9-1.4,1.4-1.9c0.4-0.5,0.9-0.8,1.3-0.9
				c0.5-0.2,0.9-0.2,1.3,0c0.3,0.2,0.7,1,0.7,1c0.1,0,1.1-1.4,1.5-1.8c0.5-0.4,0.9-0.7,1.4-0.8c0.5-0.2,1-0.2,1.3,0
				c0.3,0.2,0.5,0.6,0.7,1.2c0.1,0.2,0.1,0.3,0.1,0.6c0.4,1.6,0.6,2.4,1,4.1c0,0.1,0,0.1,0,0.2c0,0.1-0.1,0.1-0.2,0.1
				c-0.1,0-0.1,0-0.2,0c0,0-0.1-0.1-0.1-0.2c-0.4-1.6-0.6-2.5-1-4.1c-0.2-0.7-0.4-1.1-0.6-1.3c-0.2-0.2-0.5-0.2-1-0.1
				c-0.4,0.1-0.9,0.4-1.4,0.9c-0.5,0.4-1,1-1.5,1.8c0.5,1.7,0.7,2.6,1.2,4.3c0,0.1,0,0.1,0,0.2c0,0.1-0.1,0.1-0.1,0.1
				c-0.1,0-0.1,0-0.2,0c0,0-0.1-0.1-0.1-0.2c-0.4-1.5-0.6-2.3-1.1-3.8c-0.2-0.8-0.5-1.3-0.7-1.5c-0.3-0.2-0.6-0.2-1-0.1
				c-0.4,0.1-0.7,0.4-1.2,0.9c-0.4,0.5-0.9,1.2-1.4,2c0.5,1.6,0.8,2.4,1.3,4c0,0.1,0,0.1,0,0.2c0,0.1-0.1,0.1-0.1,0.1
				c-0.1,0-0.1,0-0.2,0c0,0-0.1-0.1-0.1-0.1c-0.8-2.4-1.1-3.5-1.9-5.9c0-0.1,0-0.1,0-0.2c0-0.1,0.1-0.1,0.2-0.1c0.1,0,0.1,0,0.2,0
				c0,0,0.1,0.1,0.1,0.2C48.1,21.2,48.2,21.4,48.4,22z"/>
			<path fill="#FFFFFF" stroke="#FFFFFF" stroke-miterlimit="10" d="M68.5,20.9c0,0.1,0,0.2,0,0.2c0,0-0.1,0.1-0.1,0.1
				c-0.1,0-0.1,0-0.2,0c-0.1,0-0.1-0.1-0.1-0.2c-0.3-1.8-0.4-2.8-0.7-4.6c-0.2,1.5-0.8,2.9-1.5,4c-0.8,1.1-1.6,1.8-2.6,2
				c-0.6,0.2-1.1,0.1-1.6-0.1c-0.4-0.2-0.7-0.7-0.8-1.3c-0.3-1.2,0.2-2.5,1.4-3.8c1.2-1.3,2.7-2.2,4.4-2.5c0.2,0,0.3-0.1,0.3-0.1
				c0.1,0,0.1,0,0.2,0c0,0,0,0,0.1,0c0.1,0,0.2,0,0.2,0c0.1,0,0.1,0.1,0.1,0.2C68,17.3,68.1,18.5,68.5,20.9z M67.2,15.1
				c-0.1,0-0.2,0-0.4,0.1c-1.7,0.3-3.1,1.1-4.2,2.3c-1.1,1.2-1.5,2.4-1.3,3.4c0.1,0.5,0.3,0.8,0.7,1c0.3,0.2,0.8,0.2,1.2,0.1
				c1-0.2,1.9-1,2.7-2.4C66.6,18.3,67.1,16.8,67.2,15.1z"/>
			<path fill="#FFFFFF" stroke="#FFFFFF" stroke-miterlimit="10" d="M69.6,2.6c0-0.1,0-0.1,0.1-0.2c0,0,0.1-0.1,0.2-0.1
				c0.1,0,0.1,0,0.2,0c0,0,0.1,0.1,0.1,0.2c0.7,6,1.1,8.9,1.8,14.9c1.9-1.7,2.9-2.6,4.9-4.2c0,0,0,0,0.1-0.1c0,0,0,0,0.1,0
				c0.1,0,0.1,0,0.2,0c0,0,0.1,0.1,0.1,0.1c0,0,0,0.1,0,0.1c0,0-0.1,0.1-0.1,0.1c-1.8,1.4-2.7,2.2-4.3,3.7c0,0,0.1,0,0.1,0
				c0.6-0.1,1.1-0.2,1.4-0.2c0.9-0.1,1.6-0.1,1.9,0.1c0.3,0.2,0.5,0.6,0.5,1.2c0,0,0,0,0,0.1c0,0.5,0,0.8,0.1,1.3c0,0.1,0,0.3,0,0.5
				c0,0,0,0.1,0,0.1c0,0.3,0.1,0.6,0.3,0.7c0.2,0.2,0.4,0.2,0.7,0.2c0.2,0,0.3-0.1,0.4-0.2c0.1-0.1,0.3-0.3,0.4-0.5c0,0,0,0,0-0.1
				c0,0,0,0,0.1-0.1c0,0,0.1,0,0.1,0c0,0,0.1,0,0.1,0.1c0,0,0,0.1,0.1,0.1c0,0,0,0,0,0.1c0,0,0,0.1,0,0.1c0,0,0,0,0,0
				c-0.1,0.2-0.2,0.4-0.5,0.6c-0.2,0.2-0.4,0.3-0.7,0.3c-0.4,0-0.7-0.1-1-0.3c-0.3-0.2-0.4-0.6-0.4-1c0-0.1,0-0.3,0-0.5
				c0-0.5,0-0.7-0.1-1.2c0,0,0-0.1,0-0.1c0-0.6-0.2-0.9-0.4-1.1c-0.2-0.2-0.7-0.2-1.4-0.1c-0.3,0-0.7,0.1-1,0.2
				c-0.4,0.1-0.9,0.2-1.5,0.3c0.1,1,0.2,1.5,0.3,2.5c0,0.1,0,0.1,0,0.2c0,0-0.1,0.1-0.2,0.1c-0.1,0-0.1,0-0.2,0c0,0-0.1-0.1-0.1-0.2
				C70.9,13.3,70.5,9.8,69.6,2.6z"/>
			<path fill="#FFFFFF" stroke="#FFFFFF" stroke-miterlimit="10" d="M79.8,16.5c0,0.9,0.4,1.6,0.9,2.1c0.6,0.5,1.3,0.7,2.2,0.7
				c0.5,0,0.9-0.1,1.2-0.2c0.4-0.1,0.8-0.5,1.3-0.9c0,0,0,0,0,0c0,0,0.1-0.1,0.1-0.1c0,0,0.1,0,0.1,0c0.1,0,0.1,0,0.1,0
				c0,0,0.1,0.1,0.1,0.1c0,0,0,0.1,0,0.1c0,0,0,0.1-0.1,0.1c0,0,0,0-0.1,0c-0.4,0.4-0.9,0.8-1.3,1c-0.5,0.2-1,0.3-1.6,0.3
				c-1,0-1.8-0.2-2.5-0.8c-0.6-0.6-1-1.4-1.1-2.4c-0.1-1,0.2-1.8,0.9-2.5c0.6-0.7,1.5-1.1,2.5-1.1c0.9,0,1.7,0.3,2.4,0.9
				c0.7,0.6,1,1.4,1,2.2c0,0,0,0,0,0c0,0.1,0,0.2-0.1,0.2c-0.1,0-0.1,0.1-0.3,0.1C83.4,16.3,82.2,16.3,79.8,16.5z M79.8,16.1
				c2.4-0.2,3.5-0.2,5.9-0.2c-0.1-0.8-0.4-1.4-1-1.9c-0.6-0.5-1.2-0.7-2.1-0.7c-0.8,0-1.5,0.3-2,0.8C80.1,14.7,79.8,15.3,79.8,16.1z
				"/>
			<path fill="#FFFFFF" stroke="#FFFFFF" stroke-miterlimit="10" d="M89.8,14.7c0-0.5,0-0.9-0.2-1.1c-0.1-0.2-0.3-0.3-0.6-0.3
				c-0.4,0-0.9,0.2-1.4,0.6c-0.1,0.1-0.2,0.2-0.3,0.2c0,0,0,0,0,0c0,0,0,0-0.1,0c0,0,0,0-0.1,0c0,0-0.1,0-0.1,0c0,0-0.1-0.1-0.1-0.1
				c0,0,0-0.1,0-0.1c0,0,0-0.1,0.1-0.1c0,0,0,0,0,0c0.4-0.3,0.7-0.6,1.1-0.7c0.3-0.2,0.7-0.2,1-0.2c0.4,0,0.7,0.2,0.9,0.4
				c0.2,0.3,0.3,0.6,0.3,1.1c0,0.3,0,0.4,0,0.7c1-0.9,1.7-1.4,2.2-1.7c0.5-0.2,0.9-0.3,1.3-0.3c0.5,0,0.9,0.2,1.2,0.5
				c0.3,0.3,0.4,0.7,0.4,1.2c0,0.4-0.2,0.8-0.4,1c-0.2,0.3-0.5,0.5-1,0.6c0,0,0,0-0.1,0c0,0,0,0-0.1,0c0,0,0,0-0.1,0
				c0,0-0.1,0-0.1-0.1c0,0,0-0.1,0-0.1c0,0,0-0.1,0-0.1c0,0,0,0,0.1-0.1c0,0,0,0,0,0c0.3-0.2,0.6-0.3,0.8-0.5
				c0.2-0.2,0.3-0.5,0.3-0.7c0-0.4-0.1-0.8-0.3-1c-0.2-0.2-0.5-0.4-0.9-0.4c-0.4,0-0.8,0.1-1.4,0.4c-0.5,0.3-1.2,0.9-2.1,1.6
				c0,1.5-0.1,2.3-0.1,3.8c0,0.1,0,0.1-0.1,0.2s-0.1,0.1-0.2,0.1c-0.1,0-0.1,0-0.1-0.1c0,0,0-0.1,0-0.2
				C89.7,17.5,89.8,16.6,89.8,14.7z"/>
			<path fill="#FFFFFF" stroke="#FFFFFF" stroke-miterlimit="10" d="M111.3,4c1.6,0.4,2.9,0.7,3.8,1.1s1.7,0.7,2.3,1.2
				c1.5,1,2.6,2.2,3.1,3.6s0.6,2.9,0.1,4.6c-0.4,1.4-1,2.5-1.9,3.3c-0.9,0.9-1.9,1.4-3.1,1.7c-0.9,0.2-1.8,0.2-2.9,0.1
				c-1.1-0.1-3-0.5-5.7-1.1c-1.1-0.2-1.6-0.3-2.7-0.5c-0.3,2.3-0.5,3.4-0.8,5.7c0,0.1,0,0.1-0.1,0.2c0,0-0.1,0-0.2,0
				c-0.1,0-0.1,0-0.1-0.1c0,0,0-0.1,0-0.2c1.2-8.1,1.7-12.2,2.9-20.3c0-0.1,0.1-0.1,0.2-0.2c0.1,0,0.2,0,0.4,0
				C108.4,3.4,109.4,3.6,111.3,4z M111.8,4.6c-2.1-0.5-3.2-0.7-5.4-1.1c-0.8,5.6-1.2,8.4-2.1,14c1.3,0.2,1.9,0.4,3.1,0.6
				c2.4,0.5,4,0.9,5,1c1,0.1,1.8,0.1,2.6,0c1.2-0.2,2.3-0.7,3.2-1.5c0.9-0.8,1.5-1.9,1.9-3.3c0.6-2.3,0.3-4.3-1.1-5.9
				C117.7,6.8,115.3,5.4,111.8,4.6z"/>
			<path fill="#FFFFFF" stroke="#FFFFFF" stroke-miterlimit="10" d="M124.2,27c0,0.1-0.1,0.2-0.1,0.2c0,0-0.1,0-0.2,0
				c-0.1,0-0.1-0.1-0.2-0.1c0-0.1,0-0.1,0-0.2c0.6-1.7,0.9-2.6,1.4-4.4c-0.9,1.2-2,2.1-3.1,2.6c-1.2,0.5-2.2,0.6-3.1,0.3
				c-0.6-0.2-1-0.5-1.3-1s-0.3-1-0.2-1.6c0.3-1.2,1.3-2,2.9-2.5c1.6-0.5,3.3-0.4,5,0.3c0.2,0.1,0.3,0.1,0.3,0.1
				c0.1,0,0.1,0.1,0.2,0.1c0,0,0,0,0.1,0c0.1,0.1,0.1,0.1,0.2,0.2c0,0.1,0,0.1,0,0.2C125.4,23.5,125,24.7,124.2,27z M125.7,21.1
				c-0.1-0.1-0.2-0.1-0.3-0.1c-1.6-0.7-3.2-0.8-4.7-0.3s-2.4,1.2-2.7,2.3c-0.1,0.5-0.1,0.9,0.1,1.2c0.2,0.4,0.5,0.6,1,0.8
				c1,0.4,2.1,0.2,3.4-0.5C123.7,23.7,124.8,22.6,125.7,21.1z"/>
			<path fill="#FFFFFF" stroke="#FFFFFF" stroke-miterlimit="10" d="M131.6,17.8c0.2,0.1,0.3,0.2,0.3,0.3s0.1,0.3,0,0.4
				c-0.1,0.1-0.1,0.2-0.3,0.3c-0.1,0-0.3,0-0.4,0c-0.1-0.1-0.2-0.2-0.3-0.3c-0.1-0.2-0.1-0.3,0-0.4c0-0.1,0.1-0.2,0.3-0.3
				C131.3,17.7,131.5,17.8,131.6,17.8z M127.8,28.7c0,0.1-0.1,0.1-0.1,0.1c-0.1,0-0.1,0-0.2,0c-0.1,0-0.1-0.1-0.1-0.1
				c0,0,0-0.1,0-0.2c0.9-2.3,1.3-3.5,2.1-5.8c0-0.1,0.1-0.1,0.1-0.1c0.1,0,0.1,0,0.2,0c0.1,0,0.1,0.1,0.1,0.1s0,0.1,0,0.2
				C129.1,25.2,128.7,26.4,127.8,28.7z"/>
			<path fill="#FFFFFF" stroke="#FFFFFF" stroke-miterlimit="10" d="M131.4,30.4c0,0.1-0.1,0.1-0.1,0.1c-0.1,0-0.1,0-0.2,0
				c-0.1,0-0.1-0.1-0.1-0.1c0,0,0-0.1,0-0.2c0.9-2.3,1.4-3.4,2.3-5.7c0-0.1,0.1-0.1,0.1-0.1c0.1,0,0.1,0,0.2,0
				c0.1,0,0.1,0.1,0.1,0.1c0,0.1,0,0.1,0,0.2c-0.2,0.5-0.3,0.7-0.5,1.2c0.8-0.2,1.6-0.3,2.1-0.3c0.6,0,1.2,0.2,1.7,0.5
				c0.7,0.4,1.1,0.8,1.2,1.4c0.1,0.6,0,1.2-0.3,2c-0.6,1.4-1,2.1-1.6,3.5c0,0.1-0.1,0.1-0.1,0.1c-0.1,0-0.1,0-0.2,0
				c-0.1,0-0.1-0.1-0.1-0.1c0,0,0-0.1,0-0.2c0.7-1.4,1-2.1,1.6-3.6c0.3-0.6,0.4-1.2,0.3-1.6c-0.1-0.4-0.5-0.8-1-1.1
				c-0.5-0.3-1-0.4-1.6-0.4c-0.6,0-1.3,0.1-2.1,0.4C132.4,28.1,132.1,28.9,131.4,30.4z"/>
			<path fill="#FFFFFF" stroke="#FFFFFF" stroke-miterlimit="10" d="M141.4,33.5c0,0,0,0.1-0.1,0.1c-0.4,0.7-0.5,1.3-0.4,1.7
				c0.1,0.4,0.4,0.9,1,1.2c0.3,0.2,0.7,0.4,1,0.4c0.3,0,0.7,0,1.2-0.1c0,0,0,0,0.1,0c0.1,0,0.1,0,0.1,0c0,0,0.1,0,0.1,0
				c0.1,0,0.1,0.1,0.1,0.1c0,0.1,0,0.1,0,0.1c0,0-0.1,0.1-0.1,0.1c0,0-0.1,0-0.1,0c0,0,0,0,0,0c-0.4,0.2-0.8,0.2-1.3,0.2
				c-0.5-0.1-0.9-0.2-1.3-0.5c-0.7-0.5-1.1-1-1.2-1.5c-0.1-0.5,0-1.2,0.4-2c0,0,0-0.1,0-0.1c0.7-1.2,1-1.8,1.6-3
				c-0.8-0.5-1.2-0.8-2-1.2c-0.1,0-0.1-0.1-0.1-0.2c0-0.1,0-0.1,0-0.2c0-0.1,0.1-0.1,0.1-0.1c0,0,0.1,0,0.2,0.1
				c0.8,0.5,1.2,0.7,2,1.3c1-1.8,1.5-2.7,2.5-4.5c0-0.1,0.1-0.1,0.1-0.1c0.1,0,0.1,0,0.2,0c0.1,0,0.1,0.1,0.1,0.1s0,0.1,0,0.2
				c-1,1.8-1.5,2.7-2.5,4.5c1.2,0.8,1.7,1.1,2.9,1.9c0.1,0,0.1,0.1,0.1,0.2c0,0.1,0,0.1,0,0.2c0,0.1-0.1,0.1-0.1,0.1
				c-0.1,0-0.1,0-0.2-0.1c-1.1-0.8-1.7-1.2-2.9-2C142.4,31.7,142.1,32.3,141.4,33.5z"/>
			<path fill="#FFFFFF" stroke="#FFFFFF" stroke-miterlimit="10" d="M152.2,30.2c0.1,0.1,0.2,0.2,0.3,0.4c0,0.2,0,0.3,0,0.4
				c-0.1,0.1-0.2,0.2-0.3,0.2c-0.2,0-0.3,0-0.4-0.1c-0.1-0.1-0.2-0.2-0.3-0.4c0-0.2,0-0.3,0-0.4c0.1-0.1,0.2-0.2,0.3-0.2
				C151.9,30.1,152,30.1,152.2,30.2z M146.6,40c0,0.1-0.1,0.1-0.1,0.1c-0.1,0-0.1,0-0.2-0.1c-0.1,0-0.1-0.1-0.1-0.1
				c0,0,0-0.1,0.1-0.2c1.2-2.1,1.9-3.1,3.1-5.2c0-0.1,0.1-0.1,0.2-0.1c0.1,0,0.1,0,0.2,0.1c0.1,0,0.1,0.1,0.1,0.2
				c0,0.1,0,0.1-0.1,0.2C148.4,36.9,147.8,38,146.6,40z"/>
			<path fill="#FFFFFF" stroke="#FFFFFF" stroke-miterlimit="10" d="M149.9,42.6c0,0.1-0.1,0.1-0.1,0.1c-0.1,0-0.1,0-0.2-0.1
				c-0.1,0-0.1-0.1-0.1-0.1c0-0.1,0-0.1,0.1-0.2c1.3-2,2-3,3.3-5.1c0-0.1,0.1-0.1,0.2-0.1c0.1,0,0.1,0,0.2,0.1
				c0.1,0,0.1,0.1,0.1,0.2c0,0.1,0,0.1-0.1,0.2c-0.3,0.4-0.4,0.7-0.7,1.1c0.9,0,1.6,0.1,2.2,0.2c0.6,0.2,1.1,0.5,1.6,0.9
				c0.6,0.5,0.9,1.1,1,1.7c0,0.6-0.2,1.2-0.7,1.9c-0.9,1.2-1.3,1.8-2.2,3c0,0.1-0.1,0.1-0.1,0.1c-0.1,0-0.1,0-0.2-0.1
				c-0.1-0.1-0.1-0.1-0.1-0.2c0-0.1,0-0.1,0-0.2c0.9-1.2,1.3-1.9,2.2-3.1c0.4-0.6,0.6-1.1,0.5-1.5c0-0.5-0.3-0.9-0.8-1.4
				c-0.4-0.4-0.9-0.6-1.5-0.8c-0.6-0.2-1.4-0.2-2.2-0.2C151.2,40.6,150.8,41.3,149.9,42.6z"/>
			<path fill="#FFFFFF" stroke="#FFFFFF" stroke-miterlimit="10" d="M164.6,50.5c-1.3,0.7-2.6,0.9-3.9,0.8c-1.3-0.1-2.3-0.5-3.1-1.3
				c-0.5-0.5-0.8-1-0.9-1.6c-0.1-0.5,0-1,0.4-1.5c0.7-0.9,1.9-1.3,3.7-0.9c1.7,0.4,3.3,1.3,4.6,2.7c0.1,0.1,0.2,0.2,0.3,0.3
				c0.1,0.1,0.1,0.1,0.2,0.2c0,0,0,0,0.1,0.1c0.1,0.1,0.1,0.2,0.1,0.3c0,0.1,0,0.1-0.1,0.2c-1.7,2-2.6,2.9-4.3,4.9
				c-0.7,0.8-1.5,1.2-2.4,1.2c-0.9,0-1.7-0.5-2.5-1.3c-0.5-0.5-0.9-1.1-1.1-1.7c-0.2-0.6-0.3-1.2-0.2-1.9c0,0,0,0,0-0.1c0,0,0,0,0,0
				c0,0,0,0,0-0.1c0-0.1,0.1-0.1,0.1-0.1c0.1,0,0.1,0,0.1,0.1c0,0,0,0.1,0,0.1c0,0,0,0.1,0,0.1c0,0,0,0,0,0.1c0,0.8,0.1,1.5,0.3,1.9
				c0.2,0.5,0.5,0.9,1,1.4c0.7,0.7,1.4,1.1,2.1,1c0.7,0,1.4-0.4,2.1-1.2C162.6,52.8,163.3,52,164.6,50.5z M165.4,49.5
				c-0.1-0.1-0.2-0.2-0.3-0.3c-1.3-1.4-2.8-2.3-4.4-2.7s-2.7-0.1-3.3,0.8c-0.3,0.4-0.4,0.8-0.3,1.2c0.1,0.4,0.3,0.9,0.7,1.2
				c0.8,0.8,2,1.2,3.4,1.2C162.7,50.9,164.1,50.5,165.4,49.5z"/>
		</g>
	</g>
	<g>
		<path fill="#FFFFFF" d="M58.9,109.9v-7.5h5.7v1.6h-4v1.6h3.6v1.5h-3.6v1.7h4.1v1.1h1.1v0.5h-8.1v-0.5H58.9z"/>
		<path fill="#FFFFFF" d="M72.6,109.9v0.5h-7.3v-0.5h1.5c-0.4-0.2-0.8-0.5-1.1-0.8l1.1-1.3c0.9,0.8,1.7,1.1,2.4,1.1
			c0.3,0,0.6-0.1,0.8-0.2s0.3-0.3,0.3-0.6s-0.1-0.4-0.3-0.6c-0.2-0.1-0.6-0.3-1.2-0.4c-0.9-0.2-1.6-0.5-2-0.9
			c-0.4-0.4-0.6-0.9-0.6-1.7c0-0.8,0.3-1.3,0.8-1.7c0.5-0.4,1.2-0.6,2-0.6c0.5,0,1.1,0.1,1.6,0.3c0.5,0.2,1,0.4,1.4,0.8l-0.9,1.3
			c-0.7-0.5-1.4-0.8-2.1-0.8c-0.3,0-0.5,0.1-0.7,0.2s-0.3,0.3-0.3,0.6s0.1,0.4,0.3,0.6c0.2,0.1,0.7,0.3,1.4,0.5
			c0.8,0.2,1.3,0.5,1.8,0.8s0.6,0.9,0.6,1.5c0,0.8-0.3,1.5-0.9,1.9H72.6z"/>
		<path fill="#FFFFFF" d="M79.4,109.9v0.5h-6.9v-0.5h2.6V104h-2.3v-1.5h6.3v1.5h-2.3v5.9H79.4z"/>
		<path fill="#FFFFFF" d="M78.8,110.4v-0.5h0.9c-0.2-0.2-0.2-0.4-0.2-0.7s0.1-0.5,0.3-0.7c0.2-0.2,0.4-0.3,0.7-0.3
			c0.3,0,0.5,0.1,0.7,0.3c0.2,0.2,0.3,0.4,0.3,0.7c0,0.3-0.1,0.5-0.2,0.7h0.9v0.5H78.8z"/>
		<path fill="#FFFFFF" d="M89.7,109.9v0.5h-4.6v-0.5H87v-6h-1.5v-1.5h3.2v7.5H89.7z"/>
		<path fill="#FFFFFF" d="M96.9,109.9v0.5h-7.2v-0.5H91c-0.2-0.1-0.3-0.2-0.5-0.3l0.9-1.3c0.1,0,0.1,0.1,0.2,0.2s0.3,0.2,0.5,0.3
			s0.5,0.2,0.7,0.2c0.5,0,0.9-0.2,1.1-0.5c0.3-0.3,0.4-0.8,0.5-1.3c-0.5,0.3-1,0.5-1.6,0.5c-0.7,0-1.4-0.2-1.9-0.7
			c-0.5-0.5-0.7-1.1-0.7-1.9s0.3-1.5,0.8-1.9c0.5-0.5,1.2-0.7,2-0.7c0.6,0,1,0.1,1.5,0.3c0.4,0.2,0.7,0.5,1,0.9
			c0.4,0.8,0.7,1.7,0.7,2.8c0,1.7-0.5,2.9-1.4,3.6H96.9z M93.1,106.1c0.4,0,0.6-0.1,0.9-0.3c0.2-0.2,0.4-0.5,0.4-0.8
			s-0.1-0.6-0.3-0.9s-0.5-0.4-0.9-0.4c-0.3,0-0.6,0.1-0.8,0.3c-0.2,0.2-0.3,0.5-0.3,0.8c0,0.3,0.1,0.6,0.3,0.8
			S92.7,106.1,93.1,106.1z"/>
		<path fill="#FFFFFF" d="M103.5,109.9v0.5h-6.6v-0.5h1.4l2.8-5.9h-2v1h-1.7v-2.6h5.8v1.3l-3,6.1H103.5z"/>
		<path fill="#FFFFFF" d="M110.2,109.9v0.5h-6.8v-0.5h1.3c-0.3-0.2-0.5-0.4-0.7-0.6l0.9-1.3c0.1,0.1,0.2,0.2,0.3,0.3
			c0.1,0.1,0.3,0.2,0.6,0.4c0.3,0.2,0.6,0.2,0.9,0.2s0.6-0.1,0.8-0.3c0.2-0.2,0.4-0.5,0.4-0.8c0-0.4-0.1-0.6-0.4-0.8
			c-0.3-0.2-0.6-0.3-1-0.3s-0.9,0.1-1.4,0.4l-0.7-0.8v-3.9h4.8v1.5h-3.1v1.3c0.2-0.1,0.5-0.1,0.8-0.1c0.8,0,1.4,0.2,2,0.7
			c0.6,0.5,0.8,1.1,0.8,1.9c0,0.4-0.1,0.8-0.3,1.2c-0.2,0.4-0.5,0.7-0.8,0.9H110.2z"/>
	</g>
	<g>
		
			<polygon fill="none" stroke="#FFFFFF" stroke-width="3" stroke-linecap="round" stroke-linejoin="round" stroke-miterlimit="10" points="
			56,61.2 84,34 112,61.2 112,61.2 119.4,61.2 84,26.8 67.1,43.2 66.6,37.8 58.1,37.8 57.3,52.7 48.6,61.2 56,61.2 		"/>
		
			<polygon fill="none" stroke="#FFFFFF" stroke-width="3" stroke-linecap="round" stroke-linejoin="round" stroke-miterlimit="10" points="
			109,97.6 112,61.2 84,34 56,61.2 59,97.6 		"/>
	</g>
	<g>
		
			<polygon fill="none" stroke="#FFFFFF" stroke-width="1.5" stroke-linecap="round" stroke-linejoin="round" stroke-miterlimit="10" points="
			103.5,61.4 99.1,65 102.7,60.6 100.4,58.3 98.4,60 100,57.9 92.8,50.7 88.3,53.9 91.5,49.4 89.2,47.1 78.8,59.3 93.4,73.9 
			105.5,63.4 		"/>
		
			<path fill="none" stroke="#FFFFFF" stroke-width="1.5" stroke-linecap="round" stroke-linejoin="round" stroke-miterlimit="10" d="
			M68.1,88.7c-1.5,1.5-3.3,2.1-4.8,0.6c-1.5-1.5-0.9-3.3,0.6-4.8L74.5,74c1-1,1-2.6,0-3.5l-2-2c-1-1-1-2.6,0-3.5l6-6l15.2,15.2l-6,6
			c-1,1-2.6,1-3.5,0l-2-2c-1-1-2.6-1-3.5,0L68.1,88.7z"/>
		
			<circle fill="none" stroke="#FFFFFF" stroke-width="1.5" stroke-linecap="round" stroke-linejoin="round" stroke-miterlimit="10" cx="66.6" cy="86.1" r="1.2"/>
		
			<rect x="71.5" y="68.8" transform="matrix(0.7071 0.7071 -0.7071 0.7071 73.8688 -37.5328)" fill="none" stroke="#FFFFFF" stroke-width="1.5" stroke-linecap="round" stroke-linejoin="round" stroke-miterlimit="10" width="21.4" height="3.2"/>
	</g>
</g>
</svg>
