<?xml version="1.0" encoding="utf-8"?>
<!-- Generator: Adobe Illustrator 17.1.0, SVG Export Plug-In . SVG Version: 6.00 Build 0)  -->
<!DOCTYPE svg PUBLIC "-//W3C//DTD SVG 1.1//EN" "http://www.w3.org/Graphics/SVG/1.1/DTD/svg11.dtd">
<svg version="1.1" id="Layer_1" xmlns="http://www.w3.org/2000/svg" xmlns:xlink="http://www.w3.org/1999/xlink" x="0px" y="0px"
	 viewBox="0 0 270 40" enable-background="new 0 0 270 40" xml:space="preserve">
<rect display="none" width="270" height="40"/>
<g>
	<path fill="#FFFFFF" stroke="#FFFFFF" stroke-width="1.5" stroke-miterlimit="10" d="M64,9.4L64,9.4l0.2,0.4c0,0.1,0,0.2-0.1,0.2
		C64,10,63.9,10,63.9,10c0,0-0.1,0-0.1,0s-0.1-0.1-0.1-0.1l-0.1-0.1c-1-1.4-2.5-2.4-4.5-3.3c-2-0.8-4.2-1.2-6.5-1.2
		c-3.1,0-5.5,0.7-7.4,2c-1.9,1.4-2.8,3.1-2.8,5.2c0,1.8,0.7,3.2,2,4.3c1.3,1.1,3.3,1.8,6,2.2c0.6,0.1,1.6,0.2,2.8,0.4
		c3.1,0.4,5.2,0.9,6.3,1.4c1,0.5,1.8,1.2,2.4,2.1c0.6,0.9,0.8,1.9,0.8,3.1c0,2.1-0.9,3.9-2.7,5.3c-1.8,1.4-4.1,2.1-6.9,2.1
		c-1.2,0-2.4-0.1-3.4-0.4c-1.1-0.2-2.1-0.6-3-1.1c-0.6-0.3-1.2-0.7-1.8-1.1s-0.9-0.7-1-0.8l-0.1-0.1c0,0,0,0,0-0.1
		c-0.1-0.1-0.1-0.1-0.1-0.2c0-0.1,0-0.1,0.1-0.2c0.1-0.1,0.1-0.1,0.2-0.1c0.1,0,0.1,0,0.2,0c0.1,0,0.1,0.1,0.1,0.1l0.1,0.1
		c1,1,2.3,1.8,3.8,2.3c1.5,0.6,3.2,0.8,4.9,0.8c2.6,0,4.8-0.6,6.5-1.9C61.2,29.6,62,28,62,26c0-1.1-0.3-2-0.8-2.8
		c-0.5-0.8-1.3-1.5-2.3-2c-1-0.5-3-0.9-5.9-1.3c-1-0.1-1.8-0.2-2.4-0.3c-3-0.4-5.3-1.2-6.7-2.4c-1.4-1.1-2.2-2.7-2.2-4.7
		c0-2.4,1-4.3,3-5.7c2-1.4,4.7-2.1,8.2-2.1c1.4,0,2.8,0.2,4.1,0.5c1.3,0.3,2.5,0.8,3.6,1.4c0.8,0.4,1.5,0.9,2.1,1.5
		C63.4,8.7,63.8,9.1,64,9.4z"/>
	<path fill="#FFFFFF" stroke="#FFFFFF" stroke-width="1.5" stroke-miterlimit="10" d="M68.5,29.3c0,0.1,0,0.2-0.1,0.2
		c-0.1,0.1-0.1,0.1-0.2,0.1s-0.2,0-0.2-0.1c0,0-0.1-0.1-0.1-0.2v-6.6c0,0-0.1,0.1-0.3,0.2c-0.1,0.1-0.3,0.2-0.3,0.2l-0.1,0
		c0,0,0,0,0,0c-0.1,0-0.1,0.1-0.2,0.1c-0.1,0-0.1,0-0.1,0c0,0-0.1-0.1-0.1-0.1c0-0.1,0.1-0.2,0.2-0.3c0,0,0,0,0,0l0.1,0
		c0,0,0.1-0.1,0.3-0.2c0.2-0.1,0.4-0.2,0.5-0.3V5.1c0-0.1,0-0.2,0.1-0.2c0.1-0.1,0.1-0.1,0.2-0.1c0.1,0,0.2,0,0.2,0.1
		c0,0.1,0.1,0.2,0.1,0.3v16.7c0.7-0.4,1.3-0.8,1.9-1c0.6-0.2,1.2-0.3,1.7-0.3c1.2,0,2.1,0.3,2.6,1c0.5,0.7,0.8,1.8,0.8,3.4v4.4
		c0,0.1,0,0.2-0.1,0.2c-0.1,0.1-0.1,0.1-0.2,0.1c-0.1,0-0.2,0-0.2-0.1S75,29.5,75,29.3l0-4.4c0-1.3-0.2-2.3-0.6-2.9
		c-0.4-0.6-1.1-0.9-2-0.9c-0.6,0-1.2,0.1-1.7,0.3s-1.3,0.5-2,1V29.3z"/>
	<path fill="#FFFFFF" stroke="#FFFFFF" stroke-width="1.5" stroke-miterlimit="10" d="M83.4,20.5c1.3,0,2.4,0.4,3.3,1.3
		c0.9,0.9,1.3,2,1.3,3.3c0,1.3-0.5,2.4-1.4,3.3c-0.9,0.9-2,1.4-3.3,1.4c-1.3,0-2.3-0.5-3.3-1.4c-0.9-0.9-1.4-2-1.4-3.3
		c0-1.3,0.4-2.4,1.3-3.3C81,21,82.1,20.5,83.4,20.5z M83.4,21.1c-1.1,0-2.1,0.4-2.9,1.2s-1.2,1.7-1.2,2.8c0,1.1,0.4,2,1.2,2.8
		s1.7,1.2,2.8,1.2c1.1,0,2-0.4,2.8-1.2c0.8-0.8,1.2-1.7,1.2-2.9c0-1.1-0.4-2.1-1.2-2.9C85.5,21.5,84.6,21.1,83.4,21.1z"/>
	<path fill="#FFFFFF" stroke="#FFFFFF" stroke-width="1.5" stroke-miterlimit="10" d="M90.8,25.2c0,1.2,0.4,2.2,1.1,2.9
		c0.7,0.7,1.7,1.1,3,1.1c0.6,0,1.2-0.1,1.7-0.3s1.1-0.6,1.8-1.2l0.1,0c0.1,0,0.1-0.1,0.2-0.1c0.1,0,0.1,0,0.1,0c0.1,0,0.1,0,0.2,0.1
		c0,0,0.1,0.1,0.1,0.2c0,0,0,0.1,0,0.1c0,0-0.1,0.1-0.1,0.1l-0.1,0.1c-0.6,0.6-1.2,1-1.8,1.3c-0.6,0.3-1.4,0.4-2.2,0.4
		c-1.4,0-2.5-0.4-3.3-1.3s-1.2-2-1.2-3.4c0-1.3,0.4-2.4,1.3-3.3c0.9-0.9,2-1.3,3.3-1.3c1.2,0,2.2,0.4,3.1,1.3
		c0.9,0.9,1.3,1.8,1.3,2.9v0.1c0,0.2,0,0.3-0.1,0.3c-0.1,0.1-0.2,0.1-0.4,0.1H90.8z M90.8,24.6l7.8,0c-0.1-1.1-0.5-1.9-1.3-2.6
		c-0.7-0.7-1.6-1-2.7-1c-1,0-1.9,0.3-2.7,1C91.3,22.8,90.9,23.6,90.8,24.6z"/>
	<path fill="#FFFFFF" stroke="#FFFFFF" stroke-width="1.5" stroke-miterlimit="10" d="M103.2,22.9c0.9-0.8,1.7-1.4,2.4-1.8
		c0.7-0.4,1.3-0.6,1.9-0.6c0.7,0,1.2,0.2,1.6,0.5c0.4,0.4,0.6,0.9,0.6,1.6c0.9-0.7,1.8-1.3,2.5-1.6s1.4-0.5,2-0.5
		c0.7,0,1.2,0.2,1.6,0.5c0.3,0.4,0.5,1,0.5,1.8v0.8v5.7c0,0.1,0,0.2-0.1,0.2c-0.1,0.1-0.1,0.1-0.2,0.1c-0.1,0-0.2,0-0.2-0.1
		c0,0-0.1-0.1-0.1-0.2v-5.7c0-1-0.1-1.6-0.3-2c-0.2-0.3-0.6-0.5-1.2-0.5c-0.6,0-1.2,0.2-2,0.6c-0.7,0.4-1.6,0.9-2.5,1.6v6
		c0,0.1,0,0.2-0.1,0.2c-0.1,0.1-0.1,0.1-0.2,0.1c-0.1,0-0.2,0-0.2-0.1s-0.1-0.1-0.1-0.2V24c0-1.1-0.1-1.9-0.4-2.2
		c-0.2-0.4-0.7-0.6-1.3-0.6c-0.5,0-1.1,0.2-1.8,0.6c-0.7,0.4-1.5,1-2.5,1.9v5.7c0,0.1,0,0.2-0.1,0.2c-0.1,0.1-0.1,0.1-0.2,0.1
		s-0.2,0-0.2-0.1c0,0-0.1-0.1-0.1-0.2v-8.5c0-0.1,0-0.2,0.1-0.2c0.1-0.1,0.1-0.1,0.2-0.1c0.1,0,0.2,0,0.2,0.1c0,0.1,0.1,0.2,0.1,0.3
		V22.9z"/>
	<path fill="#FFFFFF" stroke="#FFFFFF" stroke-width="1.5" stroke-miterlimit="10" d="M129.5,29.3c0,0.1,0,0.2-0.1,0.3
		c0,0.1-0.1,0.1-0.2,0.1c-0.1,0-0.2,0-0.3-0.1c-0.1-0.1-0.1-0.2-0.1-0.3V23c-0.6,2-1.6,3.6-2.9,4.9c-1.3,1.3-2.6,1.9-3.9,1.9
		c-0.9,0-1.5-0.2-2-0.7c-0.5-0.5-0.7-1.1-0.7-1.9c0-1.7,0.9-3.2,2.8-4.6c1.9-1.4,3.9-2.1,6.2-2.1c0.2,0,0.4,0,0.4,0
		c0.1,0,0.2,0,0.3,0h0.1c0.1,0,0.2,0.1,0.3,0.1c0.1,0.1,0.1,0.2,0.1,0.3V29.3z M128.9,21.1h-0.5c-2.2,0-4.2,0.6-5.9,1.9
		s-2.6,2.6-2.6,4.1c0,0.6,0.2,1.2,0.6,1.5c0.4,0.4,0.9,0.6,1.6,0.6c1.4,0,2.8-0.8,4.1-2.3C127.6,25.3,128.4,23.4,128.9,21.1z"/>
	<path fill="#FFFFFF" stroke="#FFFFFF" stroke-width="1.5" stroke-miterlimit="10" d="M134,5.1c0-0.1,0-0.2,0.1-0.2
		c0.1-0.1,0.1-0.1,0.2-0.1c0.1,0,0.2,0,0.2,0.1c0,0.1,0.1,0.2,0.1,0.3v20.3l7-4.8c0,0,0.1,0,0.1-0.1c0,0,0.1,0,0.1,0
		c0.1,0,0.2,0,0.2,0.1c0.1,0,0.1,0.1,0.1,0.2c0,0.1,0,0.1-0.1,0.1c0,0-0.1,0.1-0.1,0.1l-6.1,4.3c0,0,0.1,0,0.2,0
		c0.9,0,1.5-0.1,1.9-0.1c1.3,0,2.1,0.2,2.5,0.5c0.4,0.3,0.6,0.9,0.6,1.7v0.1l0,1.8c0,0.2,0,0.4,0,0.6c0,0,0,0.1,0,0.1
		c0,0.4,0.1,0.8,0.3,1c0.2,0.2,0.6,0.4,1,0.4c0.2,0,0.4-0.1,0.6-0.2c0.2-0.1,0.4-0.3,0.6-0.6l0.1-0.1c0,0,0-0.1,0.1-0.1
		c0,0,0.1,0,0.1,0c0,0,0.1,0,0.1,0.1c0,0.1,0.1,0.1,0.1,0.2c0,0,0,0,0,0.1c0,0,0,0.1,0,0.1l0,0.1c-0.1,0.3-0.4,0.5-0.7,0.7
		s-0.6,0.3-1,0.3c-0.6,0-1-0.2-1.4-0.5c-0.3-0.3-0.5-0.8-0.5-1.4c0-0.1,0-0.4,0-0.6l0-1.7v-0.2c0-0.7-0.1-1.2-0.4-1.5
		c-0.3-0.2-0.9-0.4-1.8-0.4c-0.4,0-0.9,0-1.4,0c-0.5,0-1.2,0.1-2,0.1v3.3c0,0.1,0,0.2-0.1,0.2c-0.1,0.1-0.1,0.1-0.2,0.1
		s-0.2,0-0.2-0.1c0,0-0.1-0.1-0.1-0.2V5.1z"/>
	<path fill="#FFFFFF" stroke="#FFFFFF" stroke-width="1.5" stroke-miterlimit="10" d="M145.2,25.2c0,1.2,0.4,2.2,1.1,2.9
		c0.7,0.7,1.7,1.1,3,1.1c0.6,0,1.2-0.1,1.7-0.3s1.1-0.6,1.8-1.2l0.1,0c0.1,0,0.1-0.1,0.2-0.1c0.1,0,0.1,0,0.1,0c0.1,0,0.1,0,0.2,0.1
		s0.1,0.1,0.1,0.2c0,0,0,0.1,0,0.1s-0.1,0.1-0.1,0.1l-0.1,0.1c-0.6,0.6-1.2,1-1.8,1.3c-0.6,0.3-1.4,0.4-2.2,0.4
		c-1.4,0-2.5-0.4-3.3-1.3s-1.2-2-1.2-3.4c0-1.3,0.4-2.4,1.3-3.3c0.9-0.9,2-1.3,3.3-1.3c1.2,0,2.2,0.4,3.1,1.3
		c0.9,0.9,1.3,1.8,1.3,2.9v0.1c0,0.2,0,0.3-0.1,0.3s-0.2,0.1-0.4,0.1H145.2z M145.2,24.6l7.8,0c-0.1-1.1-0.5-1.9-1.3-2.6
		s-1.6-1-2.7-1c-1,0-1.9,0.3-2.7,1S145.3,23.6,145.2,24.6z"/>
	<path fill="#FFFFFF" stroke="#FFFFFF" stroke-width="1.5" stroke-miterlimit="10" d="M158.5,23c0-0.7-0.1-1.2-0.2-1.5
		s-0.4-0.4-0.8-0.4c-0.5,0-1.1,0.3-1.9,0.9c-0.2,0.1-0.3,0.2-0.4,0.3l-0.1,0c0,0-0.1,0-0.1,0s-0.1,0-0.1,0c-0.1,0-0.1,0-0.2-0.1
		s-0.1-0.1-0.1-0.1c0-0.1,0-0.1,0-0.2s0.1-0.1,0.1-0.1l0.1-0.1c0.5-0.4,1-0.8,1.4-1c0.4-0.2,0.9-0.3,1.3-0.3c0.5,0,0.9,0.2,1.2,0.5
		c0.3,0.3,0.4,0.9,0.4,1.5v0.9c1.3-1.2,2.2-2,2.8-2.4c0.6-0.4,1.2-0.5,1.7-0.5c0.6,0,1.2,0.2,1.6,0.6c0.4,0.4,0.6,0.9,0.6,1.6
		c0,0.6-0.1,1-0.4,1.4s-0.7,0.7-1.2,1l-0.1,0c0,0,0,0-0.1,0c0,0-0.1,0-0.1,0c-0.1,0-0.1,0-0.1-0.1s-0.1-0.1-0.1-0.2c0,0,0-0.1,0-0.1
		c0,0,0.1-0.1,0.1-0.1l0.1,0c0.5-0.3,0.8-0.5,1-0.8c0.2-0.3,0.3-0.6,0.3-1c0-0.6-0.1-1-0.4-1.3c-0.3-0.3-0.7-0.5-1.3-0.5
		c-0.5,0-1,0.2-1.7,0.7c-0.7,0.5-1.6,1.2-2.6,2.3v5.2c0,0.1,0,0.2-0.1,0.2c-0.1,0.1-0.1,0.1-0.2,0.1c-0.1,0-0.2,0-0.2-0.1
		c0,0-0.1-0.1-0.1-0.2V23z"/>
	<path fill="#FFFFFF" stroke="#FFFFFF" stroke-width="1.5" stroke-miterlimit="10" d="M183.7,4.9c1.9,0,3.5,0.1,4.6,0.2
		c1.1,0.1,2.1,0.4,3,0.7c2,0.7,3.6,1.9,4.7,3.4s1.6,3.5,1.6,5.9c0,1.9-0.4,3.6-1.2,5.2s-1.9,2.7-3.4,3.5c-1,0.6-2.3,1-3.7,1.2
		c-1.5,0.2-4,0.4-7.7,0.4h-3.6V33c0,0.1,0,0.2-0.1,0.2c-0.1,0.1-0.1,0.1-0.2,0.1c-0.1,0-0.2,0-0.2-0.1c0-0.1-0.1-0.1-0.1-0.2V5.2
		c0-0.1,0.1-0.2,0.2-0.3c0.1-0.1,0.3-0.1,0.5-0.1H183.7z M184.4,5.5h-6.5v19.2h4.2c3.2,0,5.4-0.1,6.7-0.3c1.3-0.2,2.4-0.5,3.3-0.9
		c1.5-0.7,2.7-1.8,3.5-3.3c0.8-1.5,1.3-3.2,1.3-5.1c0-3.3-1-5.7-3.1-7.3S188.7,5.5,184.4,5.5z"/>
	<path fill="#FFFFFF" stroke="#FFFFFF" stroke-width="1.5" stroke-miterlimit="10" d="M206.6,29.3c0,0.1,0,0.2-0.1,0.3
		c0,0.1-0.1,0.1-0.2,0.1c-0.1,0-0.2,0-0.3-0.1c-0.1-0.1-0.1-0.2-0.1-0.3V23c-0.6,2-1.6,3.6-2.9,4.9c-1.3,1.3-2.6,1.9-3.9,1.9
		c-0.9,0-1.5-0.2-2-0.7c-0.5-0.5-0.7-1.1-0.7-1.9c0-1.7,0.9-3.2,2.8-4.6s3.9-2.1,6.2-2.1c0.2,0,0.4,0,0.4,0c0.1,0,0.2,0,0.3,0h0.1
		c0.1,0,0.2,0.1,0.3,0.1c0.1,0.1,0.1,0.2,0.1,0.3V29.3z M206,21.1h-0.5c-2.2,0-4.2,0.6-5.9,1.9s-2.6,2.6-2.6,4.1
		c0,0.6,0.2,1.2,0.6,1.5c0.4,0.4,0.9,0.6,1.6,0.6c1.4,0,2.8-0.8,4.1-2.3C204.6,25.3,205.5,23.4,206,21.1z"/>
	<path fill="#FFFFFF" stroke="#FFFFFF" stroke-width="1.5" stroke-miterlimit="10" d="M211.6,13.6c0.2,0,0.4,0.1,0.5,0.2
		c0.1,0.1,0.2,0.3,0.2,0.5s-0.1,0.4-0.2,0.5c-0.1,0.1-0.3,0.2-0.5,0.2c-0.2,0-0.4-0.1-0.5-0.2c-0.1-0.1-0.2-0.3-0.2-0.5
		c0-0.2,0.1-0.4,0.2-0.5C211.2,13.7,211.4,13.6,211.6,13.6z M211.9,29.3c0,0.1,0,0.2-0.1,0.2c-0.1,0.1-0.1,0.1-0.2,0.1
		c-0.1,0-0.2,0-0.2-0.1c0,0-0.1-0.1-0.1-0.2v-8.5c0-0.1,0-0.2,0.1-0.2c0.1-0.1,0.1-0.1,0.2-0.1c0.1,0,0.2,0,0.2,0.1
		c0,0.1,0.1,0.2,0.1,0.3V29.3z"/>
	<path fill="#FFFFFF" stroke="#FFFFFF" stroke-width="1.5" stroke-miterlimit="10" d="M217.1,29.3c0,0.1,0,0.2-0.1,0.2
		c-0.1,0.1-0.1,0.1-0.2,0.1c-0.1,0-0.2,0-0.2-0.1s-0.1-0.1-0.1-0.2v-8.5c0-0.1,0-0.2,0.1-0.2s0.1-0.1,0.2-0.1c0.1,0,0.2,0,0.2,0.1
		c0,0.1,0.1,0.2,0.1,0.3v1.8c0.9-0.8,1.7-1.4,2.4-1.7c0.7-0.3,1.4-0.5,2.1-0.5c0.9,0,1.6,0.3,2.1,0.9c0.5,0.6,0.7,1.5,0.7,2.7v5.3
		c0,0.1,0,0.2-0.1,0.2c-0.1,0.1-0.1,0.1-0.2,0.1c-0.1,0-0.2,0-0.2-0.1s-0.1-0.1-0.1-0.2v-5.4c0-1-0.2-1.7-0.6-2.1
		c-0.4-0.4-1-0.7-1.8-0.7c-0.6,0-1.3,0.2-2,0.6c-0.7,0.4-1.5,1-2.3,1.8V29.3z"/>
	<path fill="#FFFFFF" stroke="#FFFFFF" stroke-width="1.5" stroke-miterlimit="10" d="M230.5,26v0.2c0,1.1,0.2,1.9,0.5,2.3
		c0.4,0.5,1,0.7,1.8,0.7c0.5,0,1-0.1,1.4-0.3c0.4-0.2,0.8-0.6,1.3-1.1l0.1-0.1c0.1-0.1,0.1-0.1,0.1-0.2c0,0,0.1,0,0.1,0
		c0.1,0,0.2,0,0.2,0.1c0.1,0,0.1,0.1,0.1,0.2c0,0.1,0,0.1-0.1,0.2c0,0-0.1,0.1-0.1,0.1l0,0.1c-0.3,0.5-0.7,0.9-1.3,1.2
		c-0.6,0.3-1.2,0.5-1.8,0.5c-1.1,0-1.8-0.3-2.3-0.8c-0.5-0.5-0.7-1.4-0.7-2.7v-0.2l0.1-4.8h-2.9c-0.1,0-0.2,0-0.2-0.1
		c-0.1-0.1-0.1-0.1-0.1-0.2c0-0.1,0-0.2,0.1-0.2c0.1,0,0.1-0.1,0.2-0.1h2.9l0.2-7.2c0-0.1,0-0.2,0.1-0.2c0.1-0.1,0.1-0.1,0.2-0.1
		c0.1,0,0.2,0,0.2,0.1c0,0.1,0.1,0.1,0.1,0.2l-0.2,7.2h4.2c0.1,0,0.2,0,0.2,0.1c0.1,0.1,0.1,0.1,0.1,0.2c0,0.1,0,0.2-0.1,0.2
		c-0.1,0-0.1,0.1-0.2,0.1h-4.3L230.5,26z"/>
	<path fill="#FFFFFF" stroke="#FFFFFF" stroke-width="1.5" stroke-miterlimit="10" d="M240,13.6c0.2,0,0.4,0.1,0.5,0.2
		c0.1,0.1,0.2,0.3,0.2,0.5s-0.1,0.4-0.2,0.5c-0.1,0.1-0.3,0.2-0.5,0.2c-0.2,0-0.4-0.1-0.5-0.2c-0.1-0.1-0.2-0.3-0.2-0.5
		c0-0.2,0.1-0.4,0.2-0.5C239.6,13.7,239.8,13.6,240,13.6z M240.2,29.3c0,0.1,0,0.2-0.1,0.2c-0.1,0.1-0.1,0.1-0.2,0.1
		c-0.1,0-0.2,0-0.2-0.1c0,0-0.1-0.1-0.1-0.2v-8.5c0-0.1,0-0.2,0.1-0.2c0.1-0.1,0.1-0.1,0.2-0.1c0.1,0,0.2,0,0.2,0.1
		c0,0.1,0.1,0.2,0.1,0.3V29.3z"/>
	<path fill="#FFFFFF" stroke="#FFFFFF" stroke-width="1.5" stroke-miterlimit="10" d="M245.5,29.3c0,0.1,0,0.2-0.1,0.2
		c-0.1,0.1-0.1,0.1-0.2,0.1c-0.1,0-0.2,0-0.2-0.1c0,0-0.1-0.1-0.1-0.2v-8.5c0-0.1,0-0.2,0.1-0.2c0.1-0.1,0.1-0.1,0.2-0.1
		c0.1,0,0.2,0,0.2,0.1c0,0.1,0.1,0.2,0.1,0.3v1.8c0.9-0.8,1.7-1.4,2.4-1.7c0.7-0.3,1.4-0.5,2.1-0.5c0.9,0,1.6,0.3,2.1,0.9
		c0.5,0.6,0.7,1.5,0.7,2.7v5.3c0,0.1,0,0.2-0.1,0.2c-0.1,0.1-0.1,0.1-0.2,0.1c-0.1,0-0.2,0-0.2-0.1c0,0-0.1-0.1-0.1-0.2v-5.4
		c0-1-0.2-1.7-0.6-2.1c-0.4-0.4-1-0.7-1.8-0.7c-0.6,0-1.3,0.2-2,0.6s-1.5,1-2.3,1.8V29.3z"/>
	<path fill="#FFFFFF" stroke="#FFFFFF" stroke-width="1.5" stroke-miterlimit="10" d="M265.5,23c-0.6,2-1.6,3.6-2.9,4.9
		c-1.3,1.3-2.6,1.9-3.9,1.9c-0.9,0-1.5-0.2-2-0.7c-0.5-0.5-0.7-1.1-0.7-1.9c0-1.7,0.9-3.2,2.8-4.6s3.9-2.1,6.2-2.1
		c0.2,0,0.4,0,0.4,0c0.1,0,0.2,0,0.3,0h0.1c0.1,0,0.2,0.1,0.3,0.1c0.1,0.1,0.1,0.2,0.1,0.3v9.3c0,1.6-0.4,2.8-1.2,3.7
		s-2,1.3-3.5,1.3c-0.9,0-1.8-0.2-2.5-0.6c-0.7-0.4-1.3-1-1.7-1.7l0-0.1c0,0,0,0,0,0c0,0,0-0.1,0-0.1c0-0.1,0-0.2,0.1-0.2
		s0.1-0.1,0.2-0.1c0,0,0.1,0,0.1,0c0,0,0.1,0,0.1,0.1l0.1,0.1c0.6,0.8,1.2,1.4,1.8,1.7c0.6,0.3,1.3,0.4,2.1,0.4
		c1.2,0,2.2-0.4,2.9-1.2c0.7-0.8,1-1.9,1-3.3V23z M265.5,21.1H265c-2.2,0-4.2,0.6-5.9,1.9s-2.6,2.6-2.6,4.1c0,0.6,0.2,1.2,0.6,1.5
		c0.4,0.4,0.9,0.6,1.6,0.6c1.4,0,2.8-0.8,4.1-2.3C264.1,25.3,265,23.4,265.5,21.1z"/>
</g>
<g>
	
		<polygon fill="none" stroke="#FFFFFF" stroke-width="1.5" stroke-linecap="round" stroke-linejoin="round" stroke-miterlimit="10" points="
		6.4,17.7 19.2,5.2 32.1,17.7 32.1,17.7 35.5,17.7 19.2,2 11.5,9.4 11.3,7 7.4,7 7,13.8 3,17.7 6.4,17.7 	"/>
	
		<polygon fill="none" stroke="#FFFFFF" stroke-width="1.5" stroke-linecap="round" stroke-linejoin="round" stroke-miterlimit="10" points="
		30.7,34.4 32.1,17.7 19.2,5.2 6.4,17.7 7.8,34.4 	"/>
</g>
<g>
	
		<polygon fill="none" stroke="#FFFFFF" stroke-width="1.5" stroke-linecap="round" stroke-linejoin="round" stroke-miterlimit="10" points="
		28.1,18 26.1,19.7 27.7,17.7 26.6,16.6 25.7,17.4 26.5,16.4 23.1,13.1 21.1,14.6 22.6,12.5 21.5,11.5 16.7,17.1 23.4,23.7 29,19 	
		"/>
	<path fill="none" stroke="#FFFFFF" stroke-width="1.5" stroke-linecap="round" stroke-linejoin="round" stroke-miterlimit="10" d="
		M11.8,30.5c-0.7,0.7-1.5,1-2.2,0.3c-0.7-0.7-0.4-1.5,0.3-2.2l4.8-4.8c0.4-0.4,0.4-1.2,0-1.6l-0.9-0.9c-0.4-0.4-0.4-1.2,0-1.6
		l2.7-2.7l6.9,6.9l-2.7,2.7c-0.4,0.4-1.2,0.4-1.6,0l-0.9-0.9c-0.4-0.4-1.2-0.4-1.6,0L11.8,30.5z"/>
	
		<circle fill="none" stroke="#FFFFFF" stroke-width="1.5" stroke-linecap="round" stroke-linejoin="round" stroke-miterlimit="10" cx="11.1" cy="29.3" r="0.5"/>
	
		<rect x="13.4" y="21.4" transform="matrix(0.7071 0.7071 -0.7071 0.7071 21.0328 -6.4641)" fill="none" stroke="#FFFFFF" stroke-width="1.5" stroke-linecap="round" stroke-linejoin="round" stroke-miterlimit="10" width="9.8" height="1.5"/>
</g>
</svg>
